<?xml version="1.0" standalone="no"?>
<!DOCTYPE svg PUBLIC "-//W3C//DTD SVG 20010904//EN"
 "http://www.w3.org/TR/2001/REC-SVG-20010904/DTD/svg10.dtd">
<svg version="1.0" xmlns="http://www.w3.org/2000/svg"
 width="945.000000pt" height="945.000000pt" viewBox="0 0 945.000000 945.000000"
 preserveAspectRatio="xMidYMid meet">
<metadata>
Created by potrace 1.14, written by Peter Selinger 2001-2017
</metadata>
<g transform="translate(0.000000,945.000000) scale(0.100000,-0.100000)"
fill="#000000" stroke="none">
<path d="M0 4725 l0 -4725 4725 0 4725 0 0 4725 0 4725 -4725 0 -4725 0 0
-4725z m5607 1014 c15 -7 70 -13 120 -14 123 -3 143 -16 143 -88 0 -102 50
-140 146 -111 51 16 33 16 1029 -2 143 -3 305 -2 360 1 126 8 142 19 166 113
16 65 17 67 55 75 22 4 55 7 74 5 29 -3 38 -10 58 -45 43 -78 51 -160 52 -548
1 -198 5 -394 9 -435 5 -55 4 -84 -6 -107 -9 -23 -16 -123 -22 -325 -5 -161
-7 -296 -5 -299 3 -6 7 -108 5 -147 -2 -37 -60 -91 -103 -94 -32 -2 -44 3 -78
37 -31 30 -40 47 -40 72 0 18 -4 33 -9 33 -5 0 -12 8 -16 18 -14 47 -121 60
-295 38 -152 -20 -217 -22 -265 -6 -28 9 -55 9 -113 1 -53 -8 -110 -8 -182 -2
-58 6 -242 9 -410 9 -267 -1 -311 1 -355 16 -63 22 -70 14 -78 -94 -4 -44 -13
-93 -22 -110 l-16 -30 -362 -2 c-199 0 -369 0 -377 2 -8 1 -60 3 -115 5 -55 1
-135 8 -179 15 -64 11 -105 11 -223 0 -105 -9 -209 -11 -372 -5 -124 4 -293 9
-376 11 -82 1 -175 6 -206 11 -42 7 -66 6 -95 -5 -44 -15 -126 -11 -212 12
-40 11 -54 12 -58 3 -3 -8 -40 -12 -117 -13 -61 0 -144 -5 -182 -11 -48 -7
-88 -8 -125 -1 -31 6 -278 11 -570 12 -283 0 -522 5 -530 9 -23 11 -42 46 -58
107 -23 90 -25 109 -13 124 8 10 11 71 9 203 -3 164 -1 192 14 215 17 25 16
27 -4 53 -19 25 -21 40 -22 183 -1 137 4 245 19 461 3 34 10 57 20 65 16 11
16 16 1 64 -37 125 -30 342 15 449 l21 52 102 2 c181 4 412 2 921 -9 275 -6
509 -11 520 -10 11 1 49 1 85 0 36 0 128 -1 205 -2 77 -1 146 -6 152 -12 9 -7
23 -6 45 3 42 15 587 30 793 21 322 -15 875 -2 945 22 55 18 90 19 127 5z"/>
<path d="M2200 5614 c0 -9 40 -23 44 -15 3 5 -5 11 -19 13 -14 3 -25 4 -25 2z"/>
<path d="M2020 5555 c-8 -10 -30 -15 -64 -15 -28 0 -68 -5 -89 -11 -36 -10
-38 -12 -31 -37 4 -15 8 -58 8 -97 1 -113 18 -120 101 -45 30 28 60 50 65 50
22 0 121 -54 160 -88 55 -47 107 -128 124 -194 15 -60 12 -70 -42 -130 -44
-48 -104 -76 -181 -84 -51 -6 -58 -4 -80 19 -20 22 -25 40 -30 116 -8 109 -18
125 -53 79 -63 -83 -82 -150 -58 -212 6 -18 5 -49 -7 -105 -18 -90 -13 -127
19 -137 18 -5 31 3 71 46 26 29 50 64 53 79 6 29 45 48 116 58 36 5 37 4 44
-32 16 -85 -30 -211 -86 -240 -17 -9 -30 -22 -30 -29 0 -14 -62 -74 -114 -111
l-28 -20 17 -85 c22 -109 72 -215 135 -283 28 -30 50 -59 50 -64 0 -26 38 -43
96 -43 94 0 115 41 42 82 -56 31 -100 116 -106 205 -4 58 -1 68 47 165 28 57
51 113 51 126 0 13 14 37 30 54 29 29 34 30 92 26 56 -4 64 -8 100 -47 26 -27
38 -48 34 -58 -4 -9 5 -32 20 -54 21 -30 24 -42 15 -53 -6 -7 -18 -36 -26 -63
-13 -43 -19 -51 -45 -56 -16 -4 -35 -5 -42 -3 -7 2 -39 12 -71 22 -73 23 -77
18 -77 -89 0 -91 10 -116 72 -172 23 -22 48 -49 54 -60 10 -18 22 -20 106 -20
69 0 101 -5 119 -16 20 -14 26 -14 37 -3 8 9 36 14 82 14 103 0 106 3 61 63
-96 129 -143 298 -120 438 18 114 82 208 132 195 30 -7 29 -5 79 -186 62 -228
88 -338 88 -381 0 -32 3 -39 20 -39 33 0 40 31 36 167 -4 116 -8 134 -32 183
-17 34 -29 73 -30 102 -1 33 -10 60 -28 88 -16 25 -36 82 -52 148 -18 77 -33
117 -53 142 -16 19 -31 45 -35 57 -8 26 -44 73 -56 73 -10 0 -26 -48 -35 -105
-7 -48 -34 -136 -46 -151 -13 -17 -118 15 -151 46 -15 14 -42 37 -61 52 -114
91 -72 197 127 325 l99 65 45 -22 c70 -36 109 -74 116 -118 8 -51 42 -94 70
-90 18 3 21 10 23 58 2 90 33 167 98 249 75 92 122 121 201 121 79 0 148 -36
224 -116 68 -73 110 -155 110 -214 0 -37 -6 -47 -54 -93 -51 -48 -72 -58 -173
-84 -17 -4 -27 4 -49 36 -29 45 -64 172 -64 237 0 22 -6 48 -13 58 -12 16 -18
17 -50 7 -21 -7 -39 -21 -43 -33 -3 -11 -22 -38 -41 -59 -29 -32 -36 -49 -44
-106 -15 -121 -11 -208 13 -271 13 -32 22 -80 23 -111 0 -45 5 -59 26 -80 20
-20 29 -44 38 -101 6 -41 16 -97 21 -125 11 -65 12 -160 1 -208 -9 -38 -38
-87 -95 -159 -16 -21 -27 -41 -23 -44 8 -9 67 6 67 17 0 17 19 9 25 -10 5 -17
20 -20 138 -26 209 -11 367 18 367 67 0 23 22 94 39 126 5 9 17 68 27 130 20
134 16 156 -54 268 -46 76 -96 128 -115 121 -6 -2 -17 -25 -25 -52 -13 -47
-12 -53 12 -125 16 -47 25 -94 24 -125 -1 -28 1 -60 5 -72 19 -53 -77 -101
-174 -88 -42 6 -48 10 -62 43 -41 100 -48 262 -14 328 24 47 71 90 141 129 35
19 81 55 104 80 22 25 48 45 57 45 25 0 72 -55 80 -93 4 -17 13 -39 20 -47 15
-17 53 -100 80 -175 10 -27 24 -59 32 -71 12 -20 28 -93 55 -254 10 -61 7
-151 -8 -229 -6 -32 -5 -34 17 -28 13 4 58 7 100 7 49 0 82 5 95 14 19 14 19
15 0 68 -10 29 -20 66 -23 83 -30 215 -88 397 -173 544 -55 96 -67 143 -72
282 -3 87 0 105 41 239 34 112 51 153 75 179 31 33 31 33 104 28 91 -7 167
-41 214 -98 18 -21 48 -56 67 -76 30 -33 33 -40 29 -84 -10 -96 -75 -155 -201
-181 -75 -16 -95 -4 -129 77 -20 46 -28 79 -27 118 2 86 -18 103 -45 37 -24
-61 -20 -149 16 -314 23 -109 38 -156 55 -176 13 -15 23 -36 23 -46 0 -30 51
-169 66 -177 8 -4 14 -19 14 -31 0 -26 43 -61 64 -53 14 6 40 94 51 172 8 56
33 125 46 125 12 0 33 -44 68 -140 29 -78 31 -91 37 -300 6 -197 5 -221 -10
-245 -14 -22 -15 -29 -4 -42 11 -13 28 -15 107 -10 52 4 96 9 98 11 3 2 -1 33
-8 68 -7 34 -11 109 -10 165 2 95 5 109 46 210 25 59 54 116 65 125 11 9 23
31 26 50 3 18 15 57 26 87 16 45 17 59 7 83 -15 36 -26 35 -47 -4 -9 -18 -31
-47 -48 -64 l-30 -32 -72 13 c-83 16 -97 23 -136 64 l-30 31 33 97 c57 170
119 264 174 263 12 -1 40 -9 62 -20 22 -11 45 -19 50 -20 17 0 96 -127 112
-179 9 -28 16 -103 18 -194 4 -147 4 -147 -27 -215 -17 -37 -32 -83 -34 -102
-2 -19 -13 -56 -24 -82 -11 -26 -23 -69 -26 -95 -4 -26 -19 -72 -35 -100 -34
-62 -35 -72 -11 -116 17 -31 19 -32 92 -35 l75 -4 0 89 c1 79 5 98 42 188 22
55 46 117 52 137 7 20 26 50 43 67 30 30 32 30 51 13 10 -9 30 -38 43 -64 22
-44 41 -65 49 -56 6 6 -23 175 -41 237 -9 31 -38 97 -64 147 -50 94 -80 186
-80 246 0 48 34 163 74 251 29 65 38 76 65 82 99 22 254 -90 345 -249 42 -72
42 -83 1 -119 -20 -17 -46 -47 -57 -65 -22 -36 -55 -56 -109 -66 -45 -8 -56 3
-104 109 -20 44 -42 86 -49 95 -7 8 -16 35 -19 59 -3 24 -10 48 -16 54 -17 17
-40 -22 -41 -66 0 -21 -5 -47 -11 -59 -19 -36 0 -84 91 -224 57 -86 96 -158
106 -193 9 -31 31 -76 49 -101 19 -25 35 -59 37 -75 2 -17 12 -45 22 -64 42
-80 28 -206 -34 -298 -22 -33 -28 -49 -20 -57 5 -5 54 -12 108 -14 119 -4 147
7 148 58 1 20 9 50 18 67 9 18 19 61 23 95 3 38 15 79 29 104 13 22 24 52 24
66 0 25 58 88 79 88 25 0 15 149 -11 175 -3 4 -21 -33 -40 -81 -39 -103 -80
-154 -125 -154 -60 0 -173 116 -173 178 0 13 35 56 93 115 84 86 97 95 145
106 29 6 70 8 91 5 l38 -6 6 77 c18 211 1 576 -32 669 l-18 51 -119 -3 c-254
-7 -1478 -23 -1834 -23 -206 -1 -436 4 -510 10 -94 7 -247 7 -507 0 -322 -10
-378 -9 -422 4 -39 11 -59 12 -80 4 -23 -9 -33 -6 -67 16 -45 31 -48 32 -64
12z"/>
<path d="M5907 5313 c-30 -8 -40 -52 -43 -198 -2 -77 -9 -162 -16 -190 -7 -27
-11 -54 -9 -60 2 -5 4 -118 6 -250 3 -250 17 -422 36 -454 10 -16 31 -19 158
-25 80 -4 171 -9 201 -13 106 -12 343 -7 430 9 47 8 119 13 160 12 132 -6 144
-5 188 10 39 14 47 14 72 1 16 -8 39 -15 50 -15 12 0 30 -5 40 -10 13 -7 28
-6 47 1 45 17 203 14 262 -6 39 -13 55 -14 65 -6 17 15 21 123 21 616 -1 343
-9 513 -28 531 -15 15 -295 54 -392 54 -33 0 -93 -9 -134 -20 -63 -18 -79 -19
-110 -9 -40 14 -55 14 -601 22 -212 3 -393 3 -403 0z m1220 -92 c60 -28 67
-47 60 -165 -6 -98 -7 -102 -38 -128 -17 -14 -52 -31 -77 -38 -54 -13 -64 -5
-84 65 -22 77 -40 87 -191 110 -56 9 -116 21 -133 26 -58 18 -205 -13 -218
-46 -4 -11 93 -147 140 -196 14 -14 46 -36 72 -49 56 -27 123 -83 248 -202 50
-49 94 -88 97 -88 16 0 5 56 -23 122 -30 70 -37 121 -21 147 7 12 17 9 54 -12
51 -30 79 -71 119 -169 15 -37 39 -85 53 -108 20 -31 23 -45 15 -60 -5 -10
-10 -47 -10 -83 0 -74 -16 -96 -90 -122 -68 -25 -105 -14 -161 44 -26 27 -50
60 -54 73 -24 79 -140 241 -184 256 -16 6 -42 30 -59 55 -39 56 -86 97 -138
120 -23 11 -48 30 -55 44 -8 14 -33 34 -56 44 -24 10 -43 23 -43 29 0 6 -20
34 -44 64 -56 70 -80 132 -73 192 8 78 17 81 197 72 85 -5 189 -8 230 -8 41 1
99 -4 128 -9 43 -9 59 -8 82 4 73 38 192 45 257 16z m-705 -552 l31 -30 -8
-107 c-4 -59 -7 -125 -7 -147 1 -49 -33 -97 -88 -125 -55 -28 -94 -26 -115 6
-25 38 -14 94 29 159 22 33 43 85 56 136 23 90 45 139 61 139 6 0 24 -14 41
-31z"/>
<path d="M4135 5021 c-6 -11 9 -23 19 -14 9 9 7 23 -3 23 -6 0 -12 -4 -16 -9z"/>
<path d="M4430 4840 c0 -5 4 -10 9 -10 6 0 13 5 16 10 3 6 -1 10 -9 10 -9 0
-16 -4 -16 -10z"/>
<path d="M4420 4812 c0 -12 19 -26 26 -19 2 2 -2 10 -11 17 -9 8 -15 8 -15 2z"/>
<path d="M5585 4629 c-4 -6 -5 -12 -2 -15 2 -3 7 2 10 11 7 17 1 20 -8 4z"/>
<path d="M5730 4619 c0 -5 5 -7 10 -4 6 3 10 8 10 11 0 2 -4 4 -10 4 -5 0 -10
-5 -10 -11z"/>
<path d="M4244 4317 c3 -10 6 -23 6 -28 0 -5 5 -9 10 -9 14 0 12 13 -6 36 -14
17 -15 17 -10 1z"/>
<path d="M5785 4321 c-3 -5 -1 -12 5 -16 5 -3 10 1 10 9 0 18 -6 21 -15 7z"/>
<path d="M5771 4221 c-28 -36 -29 -39 -12 -44 16 -4 22 4 34 39 8 24 13 44 11
44 -1 0 -16 -17 -33 -39z"/>
<path d="M4265 4197 c-9 -21 -2 -153 8 -163 11 -11 37 17 37 40 0 11 -9 48
-19 81 -14 44 -21 55 -26 42z"/>
<path d="M4956 4182 c-20 -33 -47 -128 -44 -159 4 -47 18 -47 40 -2 26 52 30
203 4 161z"/>
<path d="M2860 4152 c0 -14 28 -72 35 -72 6 0 -16 63 -26 75 -6 5 -9 4 -9 -3z"/>
<path d="M5062 4086 c-54 -79 -64 -127 -31 -150 37 -26 76 -21 93 12 22 43 29
95 17 139 -19 70 -32 70 -79 -1z"/>
<path d="M5732 4129 c1 -12 8 -24 15 -26 7 -3 9 3 6 17 -8 29 -25 37 -21 9z"/>
<path d="M1831 4065 c1 -33 -3 -73 -9 -88 -23 -56 -18 -61 50 -53 34 3 64 9
67 12 8 8 -66 148 -90 170 l-21 19 3 -60z"/>
<path d="M4150 4015 c0 -67 2 -75 19 -75 36 0 43 24 21 75 -11 25 -20 53 -20
61 0 8 -4 14 -10 14 -6 0 -10 -32 -10 -75z"/>
<path d="M5612 3982 c-12 -32 -22 -61 -22 -65 0 -4 16 -7 35 -7 l36 0 -3 62
c-2 34 -8 63 -13 65 -6 2 -20 -23 -33 -55z"/>
<path d="M3692 4018 c-7 -7 -12 -16 -12 -21 0 -5 -7 -24 -16 -43 -18 -39 -12
-67 13 -62 23 4 43 45 43 90 0 40 -10 54 -28 36z"/>
<path d="M3074 3874 c3 -9 6 -22 6 -30 0 -8 7 -14 15 -14 14 0 14 3 0 30 -16
31 -32 42 -21 14z"/>
<path d="M3480 3791 c0 -10 36 -21 44 -14 3 3 3 10 0 14 -7 12 -44 12 -44 0z"/>
</g>
</svg>
