<?xml version="1.0" standalone="no"?>
<!DOCTYPE svg PUBLIC "-//W3C//DTD SVG 20010904//EN"
 "http://www.w3.org/TR/2001/REC-SVG-20010904/DTD/svg10.dtd">
<svg version="1.0" xmlns="http://www.w3.org/2000/svg"
 width="242.000000pt" height="304.000000pt" viewBox="0 0 242.000000 304.000000"
 preserveAspectRatio="xMidYMid meet">

<g transform="translate(0.000000,304.000000) scale(0.100000,-0.100000)"
fill="#000000" stroke="none">
<path d="M1154 2721 c-45 -15 -132 -60 -159 -83 -55 -45 -62 -55 -123 -168
-16 -30 -39 -72 -51 -93 -11 -21 -21 -43 -21 -50 0 -7 -10 -30 -22 -52 -58
-104 -4 -454 85 -552 11 -13 24 -23 29 -23 10 0 37 -26 72 -73 30 -39 101 -87
128 -87 9 0 19 -7 22 -15 7 -20 93 -60 176 -81 50 -13 88 -15 164 -10 119 8
146 14 146 32 0 17 39 34 76 34 14 0 41 9 62 19 44 22 132 100 115 101 -30 1
-1 77 31 86 27 7 50 39 70 98 9 27 23 58 31 69 8 12 15 28 15 35 0 8 6 28 13
45 45 104 57 235 31 328 -9 35 -26 75 -36 88 -10 13 -18 30 -18 38 0 31 -70
121 -137 176 -81 66 -196 122 -291 143 -98 20 -342 18 -408 -5z m386 -178 c14
-3 33 -6 43 -7 17 -1 35 -14 131 -98 24 -21 47 -38 52 -38 5 0 26 -40 46 -89
77 -184 76 -445 -3 -545 -21 -27 -22 -26 24 -30 20 -2 26 -18 15 -42 -9 -19
-16 -22 -37 -17 -14 3 -32 10 -39 16 -10 8 -19 4 -35 -16 -24 -29 -77 -47 -77
-27 0 18 -65 7 -128 -21 -50 -23 -58 -24 -140 -14 -48 5 -92 13 -99 18 -6 4
-18 4 -26 1 -11 -4 -24 7 -41 34 -17 27 -42 49 -78 66 -29 15 -78 50 -110 79
-59 55 -80 97 -128 254 -11 40 -25 75 -29 77 -14 9 4 102 23 122 7 6 32 44 55
83 81 133 159 177 356 201 61 7 180 3 225 -7z"/>
<path d="M1371 2249 c-13 -5 -55 -16 -92 -25 -59 -13 -70 -20 -83 -46 -9 -17
-13 -35 -10 -40 3 -5 1 -22 -6 -38 -17 -40 4 -130 31 -137 11 -3 19 -9 19 -13
0 -4 13 -10 28 -13 16 -3 43 -20 62 -37 27 -25 42 -31 85 -33 60 -2 92 12 120
54 11 16 27 31 36 34 17 6 29 46 29 96 0 15 5 31 10 34 15 9 12 34 -5 51 -8 9
-15 29 -15 45 0 16 -4 29 -8 29 -5 0 -17 8 -28 18 -23 22 -136 36 -173 21z"/>
<path d="M718 1548 c-8 -7 -21 -27 -29 -45 -7 -18 -23 -37 -36 -44 -12 -6 -27
-25 -32 -40 -5 -16 -21 -40 -35 -54 -54 -54 -54 -91 1 -158 19 -23 23 -40 23
-93 0 -53 4 -68 23 -86 12 -13 27 -32 32 -43 6 -11 24 -27 40 -35 17 -8 39
-23 50 -33 52 -45 96 -79 99 -76 3 2 21 28 42 58 20 30 50 66 65 79 16 13 29
30 29 38 0 8 3 14 8 14 8 0 32 48 32 66 0 6 13 26 29 44 35 41 50 138 24 155
-9 6 -28 20 -42 31 -14 12 -45 27 -69 34 -40 12 -162 114 -162 136 -1 15 -48
64 -63 64 -7 0 -20 -6 -29 -12z m190 -276 c2 -12 -1 -22 -7 -22 -6 0 -11 7
-11 15 0 11 -11 15 -42 14 -24 -1 -53 -4 -66 -7 -22 -7 -22 -8 17 -54 27 -33
41 -61 45 -93 4 -25 10 -45 14 -45 4 0 16 16 26 35 16 29 17 37 5 51 -12 14
-11 16 6 13 11 -3 21 -11 23 -19 4 -20 -56 -113 -68 -105 -5 3 -12 22 -15 43
-11 63 -15 72 -61 123 -24 27 -44 55 -44 62 0 8 25 12 88 12 83 0 87 -1 90
-23z m-156 -140 c22 -49 32 -96 18 -87 -5 3 -10 14 -10 23 0 10 -9 34 -20 55
-22 41 -24 47 -12 47 4 0 15 -17 24 -38z"/>
<path d="M1340 1331 c-5 -11 -10 -33 -10 -49 0 -38 -29 -122 -45 -128 -7 -3
-21 -24 -30 -47 -21 -49 -84 -147 -104 -163 -13 -10 -28 -35 -64 -109 -9 -16
-47 -61 -86 -100 -39 -38 -71 -75 -71 -82 0 -8 -7 -16 -15 -19 -8 -3 -28 -24
-44 -46 -17 -23 -39 -46 -49 -52 -76 -44 -106 -56 -141 -56 -22 0 -41 -5 -43
-12 -3 -8 -30 -13 -77 -14 -45 -1 -79 -7 -89 -16 -9 -8 -43 -27 -75 -43 -65
-33 -85 -58 -66 -81 6 -8 18 -14 26 -14 8 0 27 -7 42 -15 26 -13 36 -13 85 0
32 8 70 15 85 15 16 0 46 7 67 16 70 28 129 56 144 68 8 7 35 19 60 26 25 7
52 19 60 26 13 10 54 33 142 79 10 6 21 20 25 32 3 13 8 23 12 23 18 0 91 78
97 104 4 16 19 35 34 44 22 13 29 26 34 64 5 36 13 52 31 64 14 9 25 23 25 30
0 8 5 14 10 14 6 0 10 7 10 15 0 9 11 20 26 25 16 6 32 26 45 56 11 25 27 48
35 51 8 3 14 14 14 25 0 11 14 37 30 58 17 21 30 46 30 57 0 11 7 28 15 39 18
24 19 54 1 89 -21 39 -33 45 -103 45 -51 0 -64 -3 -73 -19z"/>
<path d="M1458 747 c-20 -16 -30 -37 -37 -78 -9 -49 -17 -62 -73 -120 -82 -82
-156 -150 -187 -170 -15 -9 -22 -21 -19 -31 5 -12 33 -16 131 -21 110 -6 132
-4 187 14 34 12 64 28 67 35 3 8 12 14 19 14 29 0 38 45 24 127 -7 43 -14 109
-15 148 -2 57 -7 72 -25 87 -29 23 -39 23 -72 -5z"/>
</g>
</svg>
